<svg width="52" height="52" viewBox="0 0 52 52" fill="none" xmlns="http://www.w3.org/2000/svg">
<g filter="url(#filter0_dd_3399_5061)">
<path d="M4.81507 22.1487C4.81507 10.4486 14.2999 0.963799 26 0.963799C37.7001 0.963799 47.1849 10.4486 47.1849 22.1487C47.1849 33.8488 37.7001 43.3336 26 43.3336C14.2999 43.3336 4.81507 33.8488 4.81507 22.1487Z" fill="url(#paint0_linear_3399_5061)" shape-rendering="crispEdges"/>
<path d="M26.001 14.9261V29.3704" stroke="white" stroke-width="1.5969" stroke-linecap="round" stroke-linejoin="round"/>
<path d="M31.6167 14.9261H20.3823C19.4959 14.9261 18.7774 15.6447 18.7774 16.531V27.7655C18.7774 28.6518 19.4959 29.3704 20.3823 29.3704H31.6167C32.5031 29.3704 33.2216 28.6518 33.2216 27.7655V16.531C33.2216 15.6447 32.5031 14.9261 31.6167 14.9261Z" stroke="white" stroke-width="1.5969" stroke-linecap="round" stroke-linejoin="round"/>
<path d="M18.7774 19.7412H33.2216" stroke="white" stroke-width="1.5969" stroke-linecap="round" stroke-linejoin="round"/>
<path d="M18.7774 24.5563H33.2216" stroke="white" stroke-width="1.5969" stroke-linecap="round" stroke-linejoin="round"/>
</g>
<defs>
<filter id="filter0_dd_3399_5061" x="0.000319288" y="0.000848838" width="51.9994" height="51.9994" filterUnits="userSpaceOnUse" color-interpolation-filters="sRGB">
<feFlood flood-opacity="0" result="BackgroundImageFix"/>
<feColorMatrix in="SourceAlpha" type="matrix" values="0 0 0 0 0 0 0 0 0 0 0 0 0 0 0 0 0 0 127 0" result="hardAlpha"/>
<feMorphology radius="1.91628" operator="erode" in="SourceAlpha" result="effect1_dropShadow_3399_5061"/>
<feOffset dy="1.91628"/>
<feGaussianBlur stdDeviation="1.91628"/>
<feComposite in2="hardAlpha" operator="out"/>
<feColorMatrix type="matrix" values="0 0 0 0 0 0 0 0 0 0 0 0 0 0 0 0 0 0 0.1 0"/>
<feBlend mode="normal" in2="BackgroundImageFix" result="effect1_dropShadow_3399_5061"/>
<feColorMatrix in="SourceAlpha" type="matrix" values="0 0 0 0 0 0 0 0 0 0 0 0 0 0 0 0 0 0 127 0" result="hardAlpha"/>
<feMorphology radius="0.95814" operator="erode" in="SourceAlpha" result="effect2_dropShadow_3399_5061"/>
<feOffset dy="3.83256"/>
<feGaussianBlur stdDeviation="2.87442"/>
<feComposite in2="hardAlpha" operator="out"/>
<feColorMatrix type="matrix" values="0 0 0 0 0 0 0 0 0 0 0 0 0 0 0 0 0 0 0.1 0"/>
<feBlend mode="normal" in2="effect1_dropShadow_3399_5061" result="effect2_dropShadow_3399_5061"/>
<feBlend mode="normal" in="SourceGraphic" in2="effect2_dropShadow_3399_5061" result="shape"/>
</filter>
<linearGradient id="paint0_linear_3399_5061" x1="4.81507" y1="0.963799" x2="47.1849" y2="43.3336" gradientUnits="userSpaceOnUse">
<stop stop-color="#F38B3B"/>
<stop offset="1" stop-color="#DD2914"/>
</linearGradient>
</defs>
</svg>
